<?xml version="1.0" standalone="no"?>
<!DOCTYPE svg PUBLIC "-//W3C//DTD SVG 20010904//EN"
 "http://www.w3.org/TR/2001/REC-SVG-20010904/DTD/svg10.dtd">
<svg version="1.0" xmlns="http://www.w3.org/2000/svg"
 width="960.000000pt" height="960.000000pt" viewBox="0 0 960.000000 960.000000"
 preserveAspectRatio="xMidYMid meet">
<metadata>
Created by potrace 1.14, written by Peter Selinger 2001-2017
</metadata>
<g transform="translate(0.000000,960.000000) scale(0.100000,-0.100000)"
fill="#000000" stroke="none">
<path d="M1790 9593 c-267 -7 -519 -37 -677 -79 -359 -96 -700 -369 -903 -724
-68 -120 -115 -246 -144 -391 -66 -332 -68 -403 -63 -3789 4 -3046 3 -3035 43
-3300 50 -340 187 -607 437 -852 211 -208 451 -339 718 -392 332 -66 403 -68
3789 -63 3046 4 3035 3 3300 43 340 50 607 187 852 437 208 211 339 451 392
718 66 332 68 403 63 3789 -2 2186 -7 2995 -15 3080 -38 369 -87 543 -211 752
-134 227 -344 433 -581 568 -228 130 -458 180 -935 200 -189 8 -5780 11 -6065
3z m3488 -1912 c47 -24 77 -56 97 -103 12 -30 15 -80 15 -248 l0 -210 153 0
c83 0 195 -7 247 -14 469 -71 818 -397 937 -875 15 -59 17 -200 20 -1392 l4
-1325 30 -18 c148 -87 281 -271 331 -455 27 -99 29 -276 5 -374 -78 -313 -336
-543 -660 -587 -375 -52 -751 209 -843 585 -26 104 -24 278 4 378 53 187 184
366 332 453 l30 18 -2 1291 -3 1290 -22 47 c-30 67 -106 143 -172 175 -53 26
-66 28 -223 31 l-168 4 0 -213 c0 -187 -3 -219 -19 -254 -51 -110 -174 -149
-272 -86 -24 16 -224 210 -445 432 -340 343 -402 410 -412 445 -16 55 -15 77
3 122 19 44 833 866 880 888 43 19 110 17 153 -5z m-1838 -197 c272 -67 499
-295 566 -569 26 -104 24 -278 -4 -378 -53 -187 -184 -366 -331 -453 l-31 -18
0 -1276 0 -1276 31 -18 c148 -87 281 -271 331 -455 27 -99 29 -276 5 -374 -78
-313 -336 -543 -660 -587 -375 -52 -751 209 -843 585 -26 104 -24 278 4 378
53 187 184 366 331 453 l31 18 0 1276 0 1276 -31 18 c-148 87 -281 271 -331
455 -27 99 -29 276 -5 374 89 360 424 611 787 591 47 -2 114 -12 150 -20z"/>
<path d="M6248 3221 c-72 -24 -113 -49 -164 -103 -56 -59 -81 -103 -100 -179
-69 -268 174 -530 445 -480 134 25 235 104 294 229 28 60 31 77 31 157 0 126
-26 189 -113 276 -49 49 -81 72 -126 89 -83 31 -192 36 -267 11z"/>
<path d="M3165 7116 c-119 -29 -213 -108 -268 -224 -28 -60 -31 -77 -31 -157
0 -126 26 -189 113 -276 88 -88 150 -113 276 -113 114 0 183 25 259 95 66 60
101 117 122 201 54 211 -87 431 -304 477 -65 14 -102 13 -167 -3z"/>
<path d="M3138 3221 c-72 -24 -113 -49 -164 -103 -56 -59 -81 -103 -100 -179
-69 -268 174 -530 445 -480 134 25 235 104 294 229 28 60 31 77 31 157 0 126
-26 189 -113 276 -49 49 -81 72 -126 89 -83 31 -192 36 -267 11z"/>
</g>
</svg>
